<svg id="Capa_1" enable-background="new 0 0 510.002 510.002" height="512" viewBox="0 0 510.002 510.002" width="512" xmlns="http://www.w3.org/2000/svg"><g><path d="m75 345.001-10 65 10 55h45c18.5 0 36.949 2.529 54.832 7.547 12.32 3.208 89.113 23.201 101.46 26.416l10-98.396-10-67.43-83.042-29.388z" fill="#ffccbd"/><g fill="#ffbda9"><path d="m184.987 287.796c-11.165 3.642-35.748 11.68-40.884 13.359-27.929 9.385-41.198 13.846-69.102 13.846l-10 15 10 15c31.6 0 47.985-5.183 77.434-15 .899-.294 41.817-13.673 41.953-13.717 4.038-1.345 8.482-1.677 12.893-.781 8.37 2.139 60.615 15.489 69.013 17.635l10-15.482-10-15.482c-24.088-6.157-51.172-13.07-62.189-15.884-.568-.002-13.415-3.729-29.118 1.506z"/><path d="m213.638 360.45c-.762 3.049-6.545 26.179-7.276 29.103.223.056 66.405 16.602 69.93 17.483l10-15.462-10-15.461c-6.388-1.596-56.161-14.039-62.654-15.663z"/><path d="m276.292 333.139v165.825c35.283 9.185 37.254 9.982 42.828 10.622 13.043 1.491 26.41-1.932 37.494-9.557 136.848-94.226 126.818-87.204 130.361-89.402.439-.355 10.368-5.542 17.087-17.654 7.179-12.939 7.746-28.428 2.274-41.497-8.881-21.208-32.888-34.314-57.162-27.165-12.684 3.731-91.623 26.951-104.339 30.691l-37.335-24.084z"/></g><path d="m305.873 309.732c-10.345-2.644-19.237-4.915-29.581-7.559v30.965c6.66 1.703 19.535 4.99 22.462 5.738.173.073 6.792 1.094 11.755 7.342 5.078 6.394 5.813 15.072 2.399 22.068-4.203 8.614-13.965 13.487-23.739 11.047-.125-.031-12.718-3.18-12.877-3.22v30.923c5.11 1.208 10.055 2.939 18.034 2.939 19.801 0 37.329-11.648 45.563-28.524 14.058-28.81-1.769-64.112-34.016-71.719z" fill="#ffa68c"/><path d="m75 510.001c-20.194 0-63.236 0-75 0 0-6.771 0-233.232 0-240h75z" fill="#0a617d"/><g><path d="m300 .001c-49.626 0-90 40.374-90 90 0 54.918 32.218 103.04 72.222 140.676 34.743 32.684 69.122 51.685 70.568 52.478l7.21 3.979 10-137.133-10-127.127c-16.341-14.697-37.444-22.873-60-22.873z" fill="#fe4a4a"/><path d="m420 .001c-22.556 0-43.659 8.176-60 22.873v264.26l7.284-4.021c1.445-.803 35.796-20.041 70.516-52.832 39.644-37.442 72.2-85.54 72.2-140.28 0-49.626-40.374-90-90-90z" fill="#e80b6a"/></g></g></svg>